<svg xmlns="http://www.w3.org/2000/svg" width="88" height="88" viewBox="0 0 88 88" fill="none"><rect width="88" height="88" rx="44" fill="#DDE7FB"></rect><path d="M56 24H32C28.68 24 26 26.66 26 29.94V51.76C26 55.04 28.68 57.7 32 57.7H33.52C35.12 57.7 36.64 58.32 37.76 59.44L41.18 62.82C42.74 64.36 45.28 64.36 46.84 62.82L50.26 59.44C51.38 58.32 52.92 57.7 54.5 57.7H56C59.32 57.7 62 55.04 62 51.76V29.94C62 26.66 59.32 24 56 24ZM40.76 46.02C41.58 46.02 42.26 46.7 42.26 47.52C42.26 48.34 41.58 49.02 40.76 49.02H35.4C34.52 49.02 33.7 48.6 33.18 47.88C32.68 47.2 32.56 46.36 32.8 45.56C33.5 43.42 35.22 42.26 36.74 41.22C38.34 40.14 39.24 39.46 39.24 38.3C39.24 37.26 38.4 36.42 37.36 36.42C36.32 36.42 35.5 37.28 35.5 38.32C35.5 39.14 34.82 39.82 34 39.82C33.18 39.82 32.5 39.14 32.5 38.32C32.5 35.64 34.68 33.44 37.38 33.44C40.08 33.44 42.26 35.62 42.26 38.32C42.26 41.14 40.14 42.58 38.44 43.74C37.38 44.46 36.38 45.14 35.88 46.04H40.76V46.02ZM54 46.16H53.58V47.54C53.58 48.36 52.9 49.04 52.08 49.04C51.26 49.04 50.58 48.36 50.58 47.54V46.16H46.66C46.66 46.16 46.66 46.16 46.64 46.16C45.66 46.16 44.76 45.64 44.26 44.8C43.76 43.94 43.76 42.88 44.26 42.04C45.62 39.7 47.2 37.04 48.64 34.72C49.28 33.7 50.5 33.24 51.64 33.56C52.78 33.9 53.58 34.94 53.56 36.14V43.18H54C54.82 43.18 55.5 43.86 55.5 44.68C55.5 45.5 54.82 46.16 54 46.16Z" fill="#3A78FF"></path><path d="M50.5801 43.16V37.28C49.4001 39.2 48.1801 41.26 47.0801 43.14H50.5801V43.16Z" fill="#3A78FF"></path></svg>