<svg width="61" height="60" viewBox="0 0 61 60" fill="none" xmlns="http://www.w3.org/2000/svg">
<path d="M45.3335 47.1498H43.4335C41.4335 47.1498 39.5335 47.9248 38.1335 49.3248L33.8585 53.5498C31.9085 55.4748 28.7335 55.4748 26.7835 53.5498L22.5085 49.3248C21.1085 47.9248 19.1835 47.1498 17.2085 47.1498H15.3335C11.1835 47.1498 7.8335 43.8249 7.8335 39.7249V12.4498C7.8335 8.34983 11.1835 5.0249 15.3335 5.0249H45.3335C49.4835 5.0249 52.8335 8.34983 52.8335 12.4498V39.7249C52.8335 43.7999 49.4835 47.1498 45.3335 47.1498Z" stroke="#3A78FF" stroke-width="3" stroke-miterlimit="10" stroke-linecap="round" stroke-linejoin="round"/>
<path d="M31.0335 37.4001C30.6585 37.5251 30.0335 37.5251 29.6335 37.4001C26.3835 36.2751 19.0835 31.65 19.0835 23.775C19.0835 20.3 21.8835 17.5 25.3335 17.5C27.3835 17.5 29.1835 18.475 30.3335 20C31.4835 18.475 33.2835 17.5 35.3335 17.5C38.7835 17.5 41.5835 20.3 41.5835 23.775C41.5585 31.65 34.2835 36.2751 31.0335 37.4001Z" stroke="#0F39C1" stroke-width="3" stroke-linecap="round" stroke-linejoin="round"/>
</svg>
